PathFileType	4	(X/Y/Z)	D:\Long Term Storage\D'Arcy Smith\Coord15.trc
DataRate	CameraRate	NumFrames	NumMarkers	Units	OrigDataRate	OrigDataStartFrame	OrigNumFrames
120.00	120.00	      97	4	mm	120.00	3026	      4841
Frame#	Time	M1			M2			M3			M4			
		X1	Y1	Z1	X2	Y2	Z2	X3	Y3	Z3	X4	Y4	Z4	

3026	25.208	1086.96667	440.56299	96.83926	1649.18445	485.43042	104.75462							
3027	25.217	1085.10498	438.68484	98.26200	1650.78833	485.05582	105.33331							
3028	25.225	1082.90894	436.03821	100.53928	1652.36511	483.56592	106.82490							
3029	25.233	1081.19556	432.91360	103.29010	1654.85620	480.26801	109.23801							
3030	25.242	1079.12024	429.01804	106.69408	1655.96130	477.10187	111.93351							
3031	25.250	1076.76343	424.34003	110.82712	1657.73193	473.04758	114.98627							
3032	25.258	1074.45862	419.27640	115.58282	1659.39551	468.26855	118.64951							
3033	25.267	1072.72009	413.65225	120.78031	1661.00366	462.86563	122.94363							
3034	25.275	1070.35107	407.39978	126.80906	1662.72339	456.89047	127.71738							
3035	25.283	1068.66602	400.82471	133.36461	1664.30322	450.38940	133.07375							
3036	25.292	1066.40674	393.67007	140.77490	1665.67053	443.69315	138.79265							
3037	25.300	1063.77856	386.16241	149.08543	1666.95569	435.75473	145.62541							
3038	25.308	1062.26477	378.71576	157.68825	1668.45984	427.79230	153.10243							
3039	25.317	1060.83130	370.99619	167.01099	1669.43042	419.74673	160.58075							
3040	25.325	1059.61646	363.26083	176.98460	1670.46606	410.94095	169.03139							
3041	25.333	1058.58496	355.48624	187.62239	1671.60559	402.15509	178.53816							
3042	25.342	1057.70667	347.74701	198.88629	1672.55908	393.06299	188.75548							
3043	25.350	1057.05054	340.20630	210.68399	1673.38904	384.22952	199.17726							
3044	25.358	1056.64648	332.85556	223.13148	1674.07947	375.07031	210.92599							
3045	25.367	1056.48352	325.80170	235.85968	1674.65015	366.29010	223.22862							
3046	25.375	1056.21924	319.12015	249.21260	1675.06689	357.71683	235.85506							
3047	25.383	1057.14160	312.89050	262.67834	1675.26233	349.29935	249.29013							
3048	25.392	1057.71533	306.89789	276.67169	1675.56580	341.25006	263.01523							
3049	25.400	1058.16125	301.42188	291.11478	1675.60718	333.52325	277.49841							
3050	25.408	1059.16687	296.48672	305.63889	1675.26392	326.15042	291.98672							
3051	25.417	1060.27173	292.20697	320.05756	1674.98511	319.23746	307.27005							
3052	25.425	1061.07202	288.47772	335.55478	1674.45166	313.07739	322.64584							
3053	25.433	1062.25647	284.92224	350.89703	1673.81934	307.43542	338.25488							
3054	25.442	1064.11560	282.57111	364.79782	1672.75317	302.43231	354.11160							
3055	25.450	1065.70923	280.75320	378.86493	1671.72070	298.20837	369.89954							
3056	25.458	1067.46802	279.47110	392.00729	1670.44336	294.66064	385.81805							
3057	25.467	1069.08521	278.48511	405.44238	1668.97083	291.67883	401.42676							
3058	25.475	1070.81140	278.12994	418.25290	1667.35144	289.43414	417.16367							
3059	25.483	1072.39600	277.89645	430.31537	1665.61462	287.68335	432.34116							
3060	25.492	1074.14636	278.16263	441.77191	1663.82983	286.76318	447.52997							
3061	25.500	1075.75500	278.84464	452.38715	1661.80847	286.22638	461.95090							
3062	25.508	1077.48206	279.89639	462.29691	1660.00940	286.76321	475.70795							
3063	25.517	1078.97498	281.25555	471.18588	1657.66467	287.35526	488.97345							
3064	25.525	1080.58691	282.49664	479.25668	1655.44580	288.60699	501.50604							
3065	25.533	1081.92163	283.99405	486.04080	1652.95349	290.37494	512.98010							
3066	25.542	1083.14673	285.49481	490.36469	1650.70898	292.13492	523.60138							
3067	25.550	1084.08838	287.74725	498.54181	1648.22876	293.85648	532.91998							
3068	25.558	1085.19214	289.00897	501.29544	1646.05029	295.78601	541.26422							
3069	25.567	1086.12854	290.01187	503.95175	1643.35059	298.10315	548.46155							
3070	25.575	1086.80444	290.92465	506.02170	1641.29724	299.70602	554.33038							
3071	25.583	1087.37329	291.65402	507.14096	1638.69910	301.44086	558.99200							
3072	25.592	1087.70386	292.17599	507.28717	1636.89453	302.75912	562.25934							
3073	25.600	1088.04810	292.51633	506.35748	1634.56665	303.84503	564.33319							
3074	25.608	1088.20447	292.64487	504.46658	1632.65137	305.45416	565.07172							
3075	25.617	1088.37476	292.61740	501.83990	1630.43201	305.29120	564.60138							
3076	25.625	1088.42285	292.40686	499.15866	1628.85815	304.85693	563.19305							
3077	25.633	1088.44226	291.44278	495.44916	1626.96545	304.33264	560.15039							
3078	25.642	1088.45044	291.09454	490.66650	1625.11292	303.67148	555.88019							
3079	25.650	1087.61255	289.01669	483.92029	1623.77197	302.51453	550.74664							
3080	25.658	1087.42676	288.38885	478.42224	1622.45825	301.20920	544.33069							
3081	25.667	1087.23853	287.75665	472.15326	1621.17029	299.75461	536.91650							
3082	25.675	1087.13318	287.40897	464.48343	1619.94128	298.16449	528.26953							
3083	25.683	1086.87439	287.10785	456.78278	1618.95105	296.55579	518.53448							
3084	25.692	1086.74133	287.05780	448.74033	1618.29907	295.22821	507.88110							
3085	25.700	1086.63342	287.23804	439.71826	1617.53564	294.10571	496.31653							
3086	25.708	1086.58337	287.57056	430.35898	1616.74316	293.14273	483.74704							
3087	25.717	1086.56958	288.15533	421.22797	1616.33472	292.66705	470.41150							
3088	25.725	1086.51917	289.23538	411.09778	1615.92847	292.87335	456.46075							
3089	25.733	1086.53638	290.49240	400.67554	1615.98047	293.27316	441.64288							
3090	25.742	1086.54053	292.10358	390.32397	1615.67627	294.04706	426.58063							
3091	25.750	1086.77539	294.10654	379.31931	1615.86597	295.83707	410.90558							
3092	25.758	1086.74170	296.31567	368.75626	1616.32898	298.37454	394.84705							
3093	25.767	1086.98010	298.89969	358.13657	1616.76111	301.57532	378.48462							
3094	25.775	1087.20410	301.89487	347.03299	1617.50110	305.70169	361.80017							
3095	25.783	1087.28467	304.91281	336.36032	1618.15295	310.19409	345.43719							
3096	25.792	1089.30457	310.02078	321.49573	1618.69055	315.26407	328.36197							
3097	25.800	1089.49622	313.75101	310.59311	1620.03015	321.25830	312.53232							
3098	25.808	1089.82996	317.71439	299.54956	1620.93140	328.00208	296.31348							
3099	25.817	1090.31750	322.01660	288.55359	1622.09546	335.19907	280.22299							
3100	25.825	1090.76794	326.39883	277.54764	1623.32654	342.74103	264.79425							
3101	25.833	1091.31592	330.82864	266.93729	1624.90430	350.79553	250.04602							
3102	25.842	1091.76074	335.60703	256.48187	1626.49268	359.27734	235.59103							
3103	25.850	1092.51208	340.31342	246.18398	1628.26978	368.11664	222.07019							
3104	25.858	1093.10327	345.11353	236.10216	1629.97754	377.11563	208.70300							
3105	25.867	1093.95935	350.02716	226.41512	1631.60071	386.32184	196.06033							
3106	25.875	1094.85217	354.89908	216.93068	1633.16504	395.73206	183.76550							
3107	25.883	1095.78503	360.02463	207.76022	1634.56445	405.42499	172.44475							
3108	25.892	1096.62292	365.17276	198.54539	1636.17932	414.89877	161.96269							
3109	25.900	1097.48706	369.15305	191.31039	1637.80200	424.66684	151.70949							
3110	25.908	1098.30347	373.66763	184.48175	1639.60022	433.51965	143.42340							
3111	25.917	1099.45581	378.57492	176.62907	1641.30444	442.25342	135.53084							
3112	25.925	1100.40344	382.94125	169.55704	1642.96362	450.56693	128.34384							
3113	25.933	1101.44250	387.13531	163.15536	1644.77307	458.17303	122.30691							
3114	25.942	1102.98755	390.85965	157.39885	1646.67480	465.33932	117.22057							
3115	25.950	1103.38000	394.53439	152.04161	1648.47791	471.59372	112.79533							
3116	25.958	1104.32434	397.86459	147.34387	1650.34314	476.99988	109.23436							
3117	25.967	1105.27063	400.79602	143.11304	1651.93774	481.51727	106.60656							
3118	25.975	1106.14063	403.36121	139.61151	1653.78516	485.40015	104.60542							
3119	25.983	1106.62244	405.41669	136.92419	1655.39233	487.53128	103.87731							
3120	25.992	1107.12415	406.86493	134.72925	1657.09387	488.98178	103.52740							
3121	26.000	1107.60999	407.93103	133.14673	1658.53687	489.41788	103.82603							
3122	26.008	1107.90918	408.54187	132.14638	1660.04761	488.79898	104.83619							
